Coordinates
version=1
nRows=17
nColumns=40
inDegrees=yes

Units are S.I. units (second, meters, Newtons, ...)
Angles are in degrees.

endheader
time	pelvis_tilt	pelvis_list	pelvis_rotation	pelvis_tx	pelvis_ty	pelvis_tz	hip_flexion_r	hip_adduction_r	hip_rotation_r	knee_angle_r	knee_angle_r_beta	ankle_angle_r	subtalar_angle_r	mtp_angle_r	hip_flexion_l	hip_adduction_l	hip_rotation_l	knee_angle_l	knee_angle_l_beta	ankle_angle_l	subtalar_angle_l	mtp_angle_l	lumbar_extension	lumbar_bending	lumbar_rotation	arm_flex_r	arm_add_r	arm_rot_r	elbow_flex_r	pro_sup_r	wrist_flex_r	wrist_dev_r	arm_flex_l	arm_add_l	arm_rot_l	elbow_flex_l	pro_sup_l	wrist_flex_l	wrist_dev_l
     37.20250000	     -8.08244356	     -3.56965115	     -7.58570727	      1.00912455	      0.92780897	      0.50555479	     18.51087794	      2.39351627	     -3.44868909	     18.72623817	     18.72623817	      9.77351102	     -0.59551971	     -0.52143048	      4.06106884	     -9.03675068	    -16.54523392	     13.88906651	     13.88906651	     15.54077217	     -7.85417687	      1.92273329	     -7.56513442	      5.74286974	     -0.23567945	    -17.56558024	    -14.98437234	     -3.85928035	     30.53494287	     46.02797487	      0.00000000	      0.00000000	     35.31671571	    -17.07018550	    -12.93265817	     86.49144194	     48.68988748	      0.00000000	      0.00000000
     37.22428571	     -8.07702529	     -3.64927215	     -6.92169144	      1.00963969	      0.92785236	      0.51010561	     18.12693320	      2.64018154	     -3.91338311	     18.76749844	     18.76749844	     10.11988819	     -0.87405523	     -0.56074730	      3.87238917	     -9.49808128	    -16.24563890	     13.96687709	     13.96687709	     15.45505889	     -7.30555205	      1.93916572	     -7.57105892	      5.70232945	     -0.34723030	    -16.85341347	    -15.08271527	     -3.80529046	     30.79329953	     46.01950965	      0.00000000	      0.00000000	     33.87542686	    -16.37067742	    -12.59125058	     85.46502053	     48.63771380	      0.00000000	      0.00000000
     37.24607143	     -8.08159860	     -3.86771491	     -6.23057418	      1.01012116	      0.92786396	      0.51475428	     17.60560288	      3.06979090	     -4.40330069	     18.54482190	     18.54482190	     10.47760156	     -1.11043957	     -0.25094200	      3.98074899	    -10.36096301	    -16.66109927	     14.68343670	     14.68343670	     15.83040241	     -5.51734274	      1.98690794	     -7.40324349	      5.88552966	     -0.92417780	    -15.67012121	    -15.36857231	     -3.32356584	     31.01286748	     45.98760704	      0.00000000	      0.00000000	     32.68127109	    -16.40708755	    -12.31245454	     81.72911969	     48.53244628	      0.00000000	      0.00000000
     37.26785714	     -8.01539241	     -3.95060500	     -5.55763983	      1.01049642	      0.92780519	      0.51923361	     17.18730486	      3.34649719	     -4.81632965	     18.61646689	     18.61646689	     10.98934235	     -1.46539112	      0.14766944	      4.17306259	    -11.04580192	    -16.70295073	     15.63805194	     15.63805194	     16.37919849	     -4.32931906	      2.74390160	     -7.36016051	      5.87719506	     -0.59084457	    -14.82929480	    -15.47540296	     -2.36550943	     30.93704578	     45.93404585	      0.00000000	      0.00000000	     31.67368184	    -15.45248380	    -11.30798652	     78.44372700	     48.37770820	      0.00000000	      0.00000000
     37.28964286	     -7.92997531	     -3.96215960	     -4.84364229	      1.01074100	      0.92763983	      0.52350960	     16.79564490	      3.52746631	     -5.27529832	     18.73408906	     18.73408906	     11.40746710	     -1.81542826	      0.11775521	      4.51806830	    -11.58643268	    -16.13431598	     16.75165353	     16.75165353	     16.35421418	     -4.20020940	      2.63811113	     -7.36322314	      5.79963033	     -0.97656318	    -13.44471825	    -15.51384825	     -2.26132257	     31.40178968	     45.92011415	      0.00000000	      0.00000000	     29.70767237	    -15.13880804	    -10.77560367	     76.07370362	     48.27950890	      0.00000000	      0.00000000
     37.31142857	     -7.78237445	     -3.99282317	     -4.09684867	      1.01089175	      0.92738747	      0.52765276	     16.37086183	      3.72259971	     -5.73552667	     18.89964864	     18.89964864	     11.84132075	     -2.23942756	      0.04583174	      5.12239091	    -12.21152042	    -15.36888296	     18.42505464	     18.42505464	     16.25544511	     -4.38598859	      2.24785022	     -7.42917431	      5.76291509	     -1.29429497	    -11.86797812	    -15.49511690	     -2.20340420	     31.80212701	     45.91353802	      0.00000000	      0.00000000	     27.65139747	    -14.72350102	    -10.16479418	     73.44606827	     48.17354493	      0.00000000	      0.00000000
     37.33321429	     -7.57883056	     -3.98839779	     -3.34785700	      1.01086171	      0.92704046	      0.53168303	     15.98320215	      3.88387580	     -6.13984870	     19.21269961	     19.21269961	     12.29898576	     -2.78182283	     -0.04949971	      5.98522271	    -12.83574184	    -14.40036126	     20.62251748	     20.62251748	     16.01036309	     -4.89192458	      1.60964680	     -7.55615965	      5.67197479	     -1.57231792	    -10.05674075	    -15.41399243	     -2.13829388	     32.14151774	     45.91102823	      0.00000000	      0.00000000	     25.56589513	    -14.25954714	     -9.43285623	     70.38383311	     48.05231160	      0.00000000	      0.00000000
     37.35500000	     -7.42484508	     -3.91939396	     -2.54207968	      1.01053221	      0.92647893	      0.53547787	     15.75111150	      3.97520967	     -6.50833254	     19.66526808	     19.66526808	     12.74713019	     -3.54020624	     -0.11532153	      7.27075293	    -13.38699916	    -13.08973304	     23.34646395	     23.34646395	     15.47999255	     -5.83674729	      0.60523200	     -7.55617460	      5.55014372	     -1.81373173	     -7.97030124	    -15.23157811	     -2.01474094	     32.27866835	     45.91568924	      0.00000000	      0.00000000	     23.57155932	    -13.76281677	     -8.45081751	     66.39099017	     47.89807664	      0.00000000	      0.00000000
     37.37678571	     -7.09758492	     -3.80892132	     -1.75580572	      1.00996134	      0.92594845	      0.53910427	     15.45214154	      4.03238749	     -6.69441850	     20.30627211	     20.30627211	     13.33151047	     -4.46643430	     -0.05905790	      8.60737815	    -13.76927347	    -11.33923645	     26.35242453	     26.35242453	     14.13716699	     -7.78998764	     -1.56147332	     -7.76631985	      5.35773654	     -1.38613710	     -5.67322581	    -15.02921400	     -1.73325421	     31.36822789	     45.95769917	      0.00000000	      0.00000000	     22.75369816	    -12.88478865	     -6.54200999	     59.97284704	     47.63982254	      0.00000000	      0.00000000
     37.39857143	     -6.86223050	     -3.75296230	     -0.90483834	      1.00898752	      0.92490690	      0.54246230	     15.36991100	      4.10491642	     -7.03266454	     21.10893020	     21.10893020	     13.88947010	     -5.34998669	     -0.19580825	     10.60342659	    -14.23713107	     -9.42599728	     30.27265493	     30.27265493	     13.14298446	     -9.50648656	     -2.84745459	     -7.97505815	      5.24952659	     -1.68706780	     -3.21116033	    -14.82390155	     -1.88622020	     32.06499208	     45.95998394	      0.00000000	      0.00000000	     20.42919658	    -12.41794193	     -5.58419890	     56.36408394	     47.48893294	      0.00000000	      0.00000000
     37.42035714	     -6.27084555	     -3.87644698	     -0.06200209	      1.00788079	      0.92401356	      0.54569021	     14.94839512	      4.35233316	     -7.49113904	     21.97858937	     21.97858937	     14.45477568	     -6.12397701	     -0.40246243	     12.53204432	    -14.85086468	     -7.47243596	     34.67423784	     34.67423784	     12.15206483	    -11.10361729	     -3.63208513	     -8.71828629	      5.31101970	     -1.48564592	     -0.70672031	    -14.78587033	     -1.97733406	     32.84496013	     45.95440143	      0.00000000	      0.00000000	     18.19312803	    -11.66398935	     -4.90307328	     53.79170060	     47.37695960	      0.00000000	      0.00000000
     37.44214286	     -6.14412914	     -3.70068308	      0.85893819	      1.00621718	      0.92242724	      0.54834741	     15.22774827	      4.29720894	     -7.61936714	     23.12255691	     23.12255691	     15.07695118	     -7.54558862	     -0.19836939	     15.13090966	    -14.68847334	     -4.81927842	     39.02293031	     39.02293031	     10.39120748	    -14.00162126	     -4.37111189	     -8.64973308	      5.10365425	     -1.41556508	      2.25948861	    -14.55288813	     -1.92976796	     32.39839137	     45.99417391	      0.00000000	      0.00000000	     17.40133220	    -10.87006991	     -2.86708265	     45.78529571	     47.08113985	      0.00000000	      0.00000000
     37.46392857	     -5.58811138	     -3.85893679	      1.67703756	      1.00457112	      0.92089866	      0.55106343	     15.06682439	      4.55749915	     -8.04315150	     24.30889166	     24.30889166	     15.64612164	     -8.42459997	     -0.43902290	     17.45381228	    -15.02727217	     -2.74590580	     43.68821126	     43.68821126	      9.28848158	    -15.34741551	     -4.56721317	     -9.33224545	      5.23964888	     -1.10380181	      5.04258117	    -14.67002225	     -2.14277028	     33.56529454	     45.98199655	      0.00000000	      0.00000000	     14.88259305	    -10.15056331	     -2.32029086	     43.56742769	     46.97583901	      0.00000000	      0.00000000
     37.48571429	     -5.40779924	     -3.73452921	      2.52348497	      1.00253736	      0.91892485	      0.55333551	     15.41588093	      4.55743635	     -8.08498423	     25.63563075	     25.63563075	     16.39556146	     -9.85586752	      0.00302041	     20.28960240	    -14.60797904	     -0.30622453	     48.35402501	     48.35402501	      9.23978857	    -16.69014585	     -0.81737795	     -9.40256460	      5.07972810	     -1.05926897	      8.16228787	    -14.53682915	     -2.41908116	     34.18009051	     45.99415365	      0.00000000	      0.00000000	     13.73615622	     -9.53965842	     -0.41604690	     36.55112225	     46.67920517	      0.00000000	      0.00000000
     37.50750000	     -5.05747380	     -3.72307604	      3.27251499	      1.00055474	      0.91705946	      0.55548949	     15.56554851	      4.64768673	     -8.28529309	     26.93877437	     26.93877437	     17.10693960	    -10.88277925	      0.34175280	     22.84836080	    -14.29978432	      1.69453987	     52.67564752	     52.67564752	      9.61205427	    -17.31082423	      3.31639966	     -9.76736807	      5.05089253	     -0.80224372	     11.12285914	    -14.59753719	     -3.01733394	     35.75948434	     45.98054768	      0.00000000	      0.00000000	     11.60851490	     -9.00330539	      0.90819611	     32.82611079	     46.42983717	      0.00000000	      0.00000000
     37.52928571	     -4.74635790	     -3.76162059	      3.97071518	      0.99860840	      0.91520227	      0.55750637	     15.67465599	      4.79856546	     -8.48619001	     28.06307185	     28.06307185	     17.62747527	    -11.86392662	      0.24366125	     25.15474773	    -14.05422494	      3.29305983	     56.12690055	     56.12690055	      8.93058433	    -18.10321999	      4.27721525	    -10.07825988	      5.05786049	     -0.71944125	     14.30086425	    -14.66567111	     -3.32440043	     37.41581631	     45.95357036	      0.00000000	      0.00000000	      8.81515610	     -8.61217075	      1.39172675	     30.73354508	     46.30903660	      0.00000000	      0.00000000
     37.55107143	     -4.39318230	     -3.81563393	      4.62250058	      0.99672077	      0.91368697	      0.55928631	     15.62444169	      4.97598325	     -8.69809244	     28.97347851	     28.97347851	     18.08940864	    -12.73048021	      0.22390612	     27.21382140	    -13.81506577	      4.58729224	     58.91039165	     58.91039165	      8.66871213	    -18.58634380	      5.57737477	    -10.41818561	      5.12003789	     -0.39888690	     17.47673645	    -14.84729186	     -3.60645977	     39.02052443	     45.92718091	      0.00000000	      0.00000000	      6.24922577	     -8.23425559	      1.86331011	     28.78614545	     46.19196529	      0.00000000	      0.00000000
